<?xml version="1.0" encoding="utf-8"?>
<!-- Generator: Adobe Illustrator 25.1.0, SVG Export Plug-In . SVG Version: 6.00 Build 0)  -->
<svg version="1.1" id="Ebene_1" xmlns="http://www.w3.org/2000/svg" xmlns:xlink="http://www.w3.org/1999/xlink" x="0px" y="0px"
	 viewBox="0 0 723.28 289.8" style="enable-background:new 0 0 723.28 289.8;" xml:space="preserve">
<text transform="matrix(1 0 0 1 4253.6001 745.3169)" style="font-family:'Didot'; font-size:300px;">myPotter</text>
<g>
	<path d="M84,80.7c2-1.6,4.35-4.75,7.05-9.45c2.7-4.7,4.75-7.55,6.15-8.55c8.4-6.4,13.4-9.6,15-9.6c1,0,1.7,0.3,2.1,0.9l17.1,24.6
		c0.2,0.2,0.3,30.9,0.3,92.1c0,2-1,3.3-3,3.9l-27.6,16.2v-1.2c4.2-4,6.6-7.7,7.2-11.1c-0.2-31.6-1.1-64.6-2.7-99
		c-1.38-2.8-3.65-4.2-6.81-4.2c-1.38,0-2.86,0.2-4.43,0.6c-2.17,4-5.52,9.2-10.06,15.6v33v29.7c0,0.6,0,2,0,4.2v6.6v2.7
		c0,2-1.02,3.3-3.06,3.9L53.1,187.8v-1.2c4.37-4,6.87-7.7,7.5-11.1c-0.22-31.6-1.22-64.6-3-99c-1.4-2.8-3.7-4.2-6.9-4.2
		c-1.4,0-2.9,0.2-4.5,0.6c-2.8,5.4-6.3,11.7-10.5,18.9c-0.6,21.4-0.1,44.8,1.5,70.2c0.4,6.4,3.5,10.3,9.3,11.7
		c-2.8,0-7.05-0.1-12.75-0.3c-5.7-0.2-9.95-0.3-12.75-0.3c-1.8,0-4.55,0.1-8.25,0.3c-3.7,0.2-6.45,0.3-8.25,0.3
		c5.2-2.2,8.3-4,9.3-5.4c0.8-0.8,1.2-2.8,1.2-6l1.5-75.9c-2-4.8-4.7-7.2-8.1-7.2c-0.8,0-2.15,0.3-4.05,0.9C2.45,80.7,1,80.9,0,80.7
		c9.2-5,15.5-8.7,18.9-11.1C25.7,65,31,60,34.8,54.6v27c3.8-6.6,8.6-13.9,14.4-21.9c8.4-6.4,13.4-9.6,15-9.6c1,0,1.7,0.3,2.1,0.9
		l17.1,24.6C83.6,75.8,83.8,77.5,84,80.7z"/>
	<path d="M139.5,96.6h44.1c-5.6,1.2-8.5,3.8-8.7,7.8l3.6,21c1.6,9.4,3.3,14.2,5.1,14.4c1.2-0.2,9-15.41,23.4-45.64
		c-0.2-2.18-0.7-3.48-1.5-3.88L198,86.7l35.4,0.6c-10,18.56-22.5,41.31-37.5,68.24c-23,41.31-36.4,61.96-40.2,61.96
		c-0.2,0-0.4-0.1-0.6-0.3c-25-2.2-39.3-4-42.9-5.4c-9-1.2-19.6-5.3-31.8-12.3c-2-1.2-3-2.4-3-3.6c0-1.4,1.2-3.5,3.6-6.3
		c5-5.8,7.7-9,8.1-9.6c8.4-0.4,15.2-0.6,20.4-0.6c5,0,8.5,0.2,10.5,0.59c-0.2,1.38-0.9,2.27-2.1,2.66c-2.4,1.18-8.7,2.96-18.9,5.32
		l-5.4,6.8c7,3.55,25,5.23,54,5.02l15-26.33c1.4-3.59,2.1-7.27,2.1-11.07c0-9.57-5.8-29.71-17.4-60.42
		C145.69,100.19,143.1,98.4,139.5,96.6z"/>
	<path d="M354.9,48.9l-6.6,67.8l-32.4,17.4l-23.1-24l0.3,64.2l-11.4-17.4l-1.2-2.4l1.8,78.3l-9.6-15l-6.6,72l-21.6-123.9l10.8,7.2
		l-11.4-74.4l15,6.6L246.3,0h46.2v16.2l28.8-12L354.9,48.9z M319.5,107.7l-3.6-87.92l-23.4,9.75l0.3,75.19l20.7,10.79L319.5,107.7z"
		/>
	<path d="M442.19,180.3c1,5-4.5,10.6-16.5,16.8c-10,5.2-18.2,8.2-24.6,9l-5.4-0.9c-20.2-15.6-30.9-25.6-32.1-30
		c-0.4-9.4,0.5-32.6,2.7-69.6c13.8-10,28.1-17.6,42.9-22.8l21.3,14.7l2.4,3.9c4.4,4.2,7,13.2,7.8,27
		C441.09,135.4,441.59,152.7,442.19,180.3z M413.39,187.5c0-52.2-1.9-83.1-5.7-92.7l-9.6,5.7c-3.4,2.6-5.6,5.3-6.6,8.1l1.5,78.9
		c1.4,4,4.1,6.9,8.1,8.7C407.09,194.4,411.19,191.5,413.39,187.5z"/>
	<path d="M504.89,78.9h-16.8l-2.7,127.5c-0.4,0.8-0.6,1.6-0.6,2.4c0,3.6,4.8,9.5,14.4,17.7l-24.6-9c-9.6-3.6-14.7-7.9-15.3-12.9
		l1.5-126.9h-25.2c17.2-9.6,34.4-26.2,51.6-49.8l-0.6,38.1h15.6L504.89,78.9z"/>
	<path d="M565.49,78.9h-16.8l-2.7,127.5c-0.4,0.8-0.6,1.6-0.6,2.4c0,3.6,4.8,9.5,14.4,17.7l-24.6-9c-9.6-3.6-14.7-7.9-15.3-12.9
		l1.5-126.9h-25.2c17.2-9.6,34.4-26.2,51.6-49.8l-0.6,38.1h15.6L565.49,78.9z"/>
	<path d="M646.19,120l-7.5,15.6c-7.8-4.6-16.7-6.9-26.7-6.9c-6,0-9.7,0.8-11.1,2.4l2.1,49.2c1.6,3.4,5,6.5,10.2,9.3
		c4-5.2,6.7-11.7,8.1-19.5c0.2-0.8,0.7-5.9,1.5-15.3l13.2,16.8l-18.3,26.1l-15.3,0.3l-30.3-26.4c-1.6-7.6-2.4-16.3-2.4-26.1
		c0-14,1.4-28.7,4.2-44.1l33.6-26.4c2.4-0.8,4.4-0.7,6,0.3l24.3,15.9L646.19,120z M624.59,121.8l-15.3-34.5
		c-1.4-1.8-2.3-2.7-2.7-2.7c-0.8,0-1.6,0.7-2.4,2.1l-3.6,34.2C611.79,120.3,619.79,120.6,624.59,121.8z"/>
	<path d="M649.48,60.9c10.2-7,21.8-15.7,34.8-26.1v27c10.4-9,17.2-13.5,20.4-13.5c1,0,1.7,0.3,2.1,0.9l14.1,24.6
		c1.6,1.8,2.4,3.6,2.4,5.4c0,2-1,3.3-3,3.9l-27.6,16.2v-1.2c4.2-4,6.6-7.7,7.2-11.1c-0.8-3-2.2-6.7-4.2-11.1c-2.6-5.6-4.6-8.2-6-7.8
		c-1.2,0.2-2.7,1.5-4.5,3.9c-0.8,29.8-0.3,59.2,1.5,88.2c0.4,6.4,3.5,10.3,9.3,11.7c-2.8,0-7.05,0-12.75,0s-9.95,0-12.75,0
		c-1.8,0-4.55,0-8.25,0c-3.7,0-6.45,0-8.25,0c5.2-2.2,8.3-4,9.3-5.4c0.8-0.8,1.2-2.8,1.2-6V60.3L649.48,60.9z"/>
</g>
</svg>
